<?xml version="1.0" encoding="UTF-8"?>
<!DOCTYPE svg PUBLIC "-//W3C//DTD SVG 1.1//EN" "http://www.w3.org/Graphics/SVG/1.1/DTD/svg11.dtd">
<svg xmlns="http://www.w3.org/2000/svg" version="1.1" width="200px" height="200px" style="shape-rendering:geometricPrecision; text-rendering:geometricPrecision; image-rendering:optimizeQuality; fill-rule:evenodd; clip-rule:evenodd" xmlns:xlink="http://www.w3.org/1999/xlink">
<g><path style="opacity:0.005" fill="#0a0015" d="M 67.5,18.5 C 67.1667,18.5 66.8333,18.5 66.5,18.5C 65.8333,18.5 65.5,18.8333 65.5,19.5C 65.1667,19.5 64.8333,19.5 64.5,19.5C 62.4509,16.4503 59.7843,14.117 56.5,12.5C 53.8333,11.1667 51.1667,11.1667 48.5,12.5C 46.5327,14.3039 44.6993,16.3039 43,18.5C 42.0594,21.154 41.2261,23.8206 40.5,26.5C 38.8958,27.287 38.2291,28.6203 38.5,30.5C 38.5,31.8333 38.5,33.1667 38.5,34.5C 38.5,35.1667 38.1667,35.5 37.5,35.5C 36.8333,35.5 36.5,35.8333 36.5,36.5C 36.1667,36.5 35.8333,36.5 35.5,36.5C 36.3506,26.8444 39.6839,18.3444 45.5,11C 54.7492,7.6504 62.0826,10.1504 67.5,18.5 Z"/></g>
<g><path style="opacity:0.998" fill="#4daceb" d="M 131.5,18.5 C 131.833,18.5 132.167,18.5 132.5,18.5C 132.5,19.1667 132.833,19.5 133.5,19.5C 133.5,20.1667 133.833,20.5 134.5,20.5C 135.167,20.5 135.833,20.5 136.5,20.5C 134.912,24.7488 132.245,28.0821 128.5,30.5C 119.861,23.5789 110.194,18.2456 99.5,14.5C 89.3625,18.4035 79.6959,23.0701 70.5,28.5C 70.5,29.5 70.5,30.5 70.5,31.5C 67.0669,28.3988 64.4002,24.7321 62.5,20.5C 63.1667,20.5 63.8333,20.5 64.5,20.5C 65.1667,20.5 65.5,20.1667 65.5,19.5C 66.1667,19.5 66.5,19.1667 66.5,18.5C 66.8333,18.5 67.1667,18.5 67.5,18.5C 74.0892,14.5767 80.7559,10.7434 87.5,7C 95.5,3.66667 103.5,3.66667 111.5,7C 118.244,10.7434 124.911,14.5767 131.5,18.5 Z"/></g>
<g><path style="opacity:0.005" fill="#0c0017" d="M 163.5,36.5 C 163.167,36.5 162.833,36.5 162.5,36.5C 162.5,35.8333 162.167,35.5 161.5,35.5C 160.833,35.5 160.5,35.1667 160.5,34.5C 159.646,25.8954 156.312,18.5621 150.5,12.5C 147.833,11.1667 145.167,11.1667 142.5,12.5C 139.216,14.117 136.549,16.4503 134.5,19.5C 134.167,19.5 133.833,19.5 133.5,19.5C 132.833,19.5 132.5,19.1667 132.5,18.5C 132.167,18.5 131.833,18.5 131.5,18.5C 136.917,10.1504 144.251,7.6504 153.5,11C 159.316,18.3444 162.649,26.8444 163.5,36.5 Z"/></g>
<g><path style="opacity:0.012" fill="#06004c" d="M 48.5,12.5 C 51.1667,11.1667 53.8333,11.1667 56.5,12.5C 55.8333,12.5 55.1667,12.5 54.5,12.5C 53.5084,12.3284 52.8417,12.6618 52.5,13.5C 52.1667,13.5 51.8333,13.5 51.5,13.5C 51.5,12.8333 51.1667,12.5 50.5,12.5C 49.8333,12.5 49.1667,12.5 48.5,12.5 Z"/></g>
<g><path style="opacity:0.012" fill="#0a0047" d="M 142.5,12.5 C 145.167,11.1667 147.833,11.1667 150.5,12.5C 149.833,12.5 149.167,12.5 148.5,12.5C 147.833,12.5 147.5,12.8333 147.5,13.5C 146.833,13.5 146.167,13.5 145.5,13.5C 145.5,12.8333 145.167,12.5 144.5,12.5C 143.833,12.5 143.167,12.5 142.5,12.5 Z"/></g>
<g><path style="opacity:0.969" fill="#eceeee" d="M 50.5,13.5 C 50.8333,13.5 51.1667,13.5 51.5,13.5C 51.8333,13.5 52.1667,13.5 52.5,13.5C 53.1667,13.5 53.8333,13.5 54.5,13.5C 56.8649,16.1995 59.5315,18.5328 62.5,20.5C 64.4002,24.7321 67.0669,28.3988 70.5,31.5C 72.9127,35.3143 75.5793,38.981 78.5,42.5C 92.5,43.8333 106.5,43.8333 120.5,42.5C 123.611,38.7364 126.277,34.7364 128.5,30.5C 132.245,28.0821 134.912,24.7488 136.5,20.5C 139.468,18.5328 142.135,16.1995 144.5,13.5C 144.833,13.5 145.167,13.5 145.5,13.5C 146.167,13.5 146.833,13.5 147.5,13.5C 147.833,13.5 148.167,13.5 148.5,13.5C 149.512,14.8717 150.512,16.205 151.5,17.5C 153.576,22.2752 154.909,27.2752 155.5,32.5C 156.182,38.0087 157.182,43.342 158.5,48.5C 159.817,59.1474 158.151,69.1474 153.5,78.5C 153.167,78.5 152.833,78.5 152.5,78.5C 152.5,77.8333 152.167,77.5 151.5,77.5C 154.935,71.2901 156.602,64.6234 156.5,57.5C 155.863,43.3652 153.196,29.6986 148.5,16.5C 147.022,16.238 145.689,16.5713 144.5,17.5C 134.364,27.9573 125.031,38.9573 116.5,50.5C 115.761,50.631 115.094,50.4643 114.5,50C 115.743,48.8455 116.743,47.5122 117.5,46C 111.319,45.1808 105.319,45.3475 99.5,46.5C 93.7945,46.1712 88.1278,46.5046 82.5,47.5C 82.9767,48.4776 83.6433,49.3109 84.5,50C 83.9056,50.4643 83.2389,50.631 82.5,50.5C 73.9695,38.9573 64.6361,27.9573 54.5,17.5C 53.3112,16.5713 51.9778,16.238 50.5,16.5C 44.8971,32.6459 42.3971,49.3126 43,66.5C 44.0488,70.3741 45.5488,74.0408 47.5,77.5C 46.8333,77.5 46.5,77.8333 46.5,78.5C 46.1667,78.5 45.8333,78.5 45.5,78.5C 40.8493,69.1474 39.1826,59.1474 40.5,48.5C 41.8184,43.342 42.8184,38.0087 43.5,32.5C 44.4313,27.3758 45.7647,22.3758 47.5,17.5C 48.4884,16.205 49.4884,14.8717 50.5,13.5 Z"/></g>
<g><path style="opacity:0.02" fill="#042a31" d="M 54.5,12.5 C 55.1667,12.5 55.8333,12.5 56.5,12.5C 59.7843,14.117 62.4509,16.4503 64.5,19.5C 64.5,19.8333 64.5,20.1667 64.5,20.5C 63.8333,20.5 63.1667,20.5 62.5,20.5C 59.5315,18.5328 56.8649,16.1995 54.5,13.5C 54.5,13.1667 54.5,12.8333 54.5,12.5 Z"/></g>
<g><path style="opacity:1" fill="#a54d03" d="M 82.5,50.5 C 82.6107,51.1174 82.944,51.6174 83.5,52C 73.8036,58.851 64.4703,66.1843 55.5,74C 53.0078,75.6096 50.3411,76.7763 47.5,77.5C 45.5488,74.0408 44.0488,70.3741 43,66.5C 42.3971,49.3126 44.8971,32.6459 50.5,16.5C 51.9778,16.238 53.3112,16.5713 54.5,17.5C 64.6361,27.9573 73.9695,38.9573 82.5,50.5 Z"/></g>
<g><path style="opacity:0.024" fill="#042a31" d="M 142.5,12.5 C 143.167,12.5 143.833,12.5 144.5,12.5C 144.5,12.8333 144.5,13.1667 144.5,13.5C 142.135,16.1995 139.468,18.5328 136.5,20.5C 135.833,20.5 135.167,20.5 134.5,20.5C 134.5,20.1667 134.5,19.8333 134.5,19.5C 136.549,16.4503 139.216,14.117 142.5,12.5 Z"/></g>
<g><path style="opacity:0.02" fill="#013332" d="M 148.5,12.5 C 149.167,12.5 149.833,12.5 150.5,12.5C 156.312,18.5621 159.646,25.8954 160.5,34.5C 159.833,34.5 159.167,34.5 158.5,34.5C 158.154,27.7494 155.988,21.7494 152,16.5C 151.601,16.7284 151.435,17.0618 151.5,17.5C 150.512,16.205 149.512,14.8717 148.5,13.5C 148.5,13.1667 148.5,12.8333 148.5,12.5 Z"/></g>
<g><path style="opacity:1" fill="#803100" d="M 52.5,22.5 C 60.7015,31.8412 68.7015,41.5078 76.5,51.5C 74.0164,54.4843 71.3497,57.3176 68.5,60C 66.1009,60.711 63.7676,60.5443 61.5,59.5C 59.431,61.2855 57.2644,62.9522 55,64.5C 54.0546,64.0946 53.3879,63.428 53,62.5C 49.8352,49.2045 49.6686,35.8712 52.5,22.5 Z"/></g>
<g><path style="opacity:0.031" fill="#0a1a2f" d="M 158.5,34.5 C 157.5,33.8333 156.5,33.1667 155.5,32.5C 154.909,27.2752 153.576,22.2752 151.5,17.5C 151.435,17.0618 151.601,16.7284 152,16.5C 155.988,21.7494 158.154,27.7494 158.5,34.5 Z"/></g>
<g><path style="opacity:0.012" fill="#000055" d="M 40.5,26.5 C 40.3404,28.153 39.6737,29.4863 38.5,30.5C 38.2291,28.6203 38.8958,27.287 40.5,26.5 Z"/></g>
<g><path style="opacity:0.024" fill="#013131" d="M 48.5,12.5 C 49.1667,12.5 49.8333,12.5 50.5,12.5C 50.5,12.8333 50.5,13.1667 50.5,13.5C 49.4884,14.8717 48.4884,16.205 47.5,17.5C 46.6715,16.6676 45.8382,17.001 45,18.5C 42.9696,22.7736 41.4696,27.2736 40.5,32C 40.5699,32.7648 40.9033,33.2648 41.5,33.5C 40.791,34.404 39.791,34.7373 38.5,34.5C 38.5,33.1667 38.5,31.8333 38.5,30.5C 39.6737,29.4863 40.3404,28.153 40.5,26.5C 41.2261,23.8206 42.0594,21.154 43,18.5C 44.6993,16.3039 46.5327,14.3039 48.5,12.5 Z"/></g>
<g><path style="opacity:0.043" fill="#0d1c2d" d="M 47.5,17.5 C 45.7647,22.3758 44.4313,27.3758 43.5,32.5C 42.8333,32.8333 42.1667,33.1667 41.5,33.5C 40.9033,33.2648 40.5699,32.7648 40.5,32C 41.4696,27.2736 42.9696,22.7736 45,18.5C 45.8382,17.001 46.6715,16.6676 47.5,17.5 Z"/></g>
<g><path style="opacity:1" fill="#062c4c" d="M 128.5,30.5 C 126.277,34.7364 123.611,38.7364 120.5,42.5C 106.5,43.8333 92.5,43.8333 78.5,42.5C 75.5793,38.981 72.9127,35.3143 70.5,31.5C 70.5,30.5 70.5,29.5 70.5,28.5C 79.6959,23.0701 89.3625,18.4035 99.5,14.5C 110.194,18.2456 119.861,23.5789 128.5,30.5 Z"/></g>
<g><path style="opacity:1" fill="#1d6783" d="M 151.5,77.5 C 148.328,76.4917 145.328,75.1583 142.5,73.5C 133.934,65.8717 124.934,58.705 115.5,52C 116.056,51.6174 116.389,51.1174 116.5,50.5C 125.031,38.9573 134.364,27.9573 144.5,17.5C 145.689,16.5713 147.022,16.238 148.5,16.5C 153.196,29.6986 155.863,43.3652 156.5,57.5C 156.602,64.6234 154.935,71.2901 151.5,77.5 Z"/></g>
<g><path style="opacity:1" fill="#1d76aa" d="M 148.5,40.5 C 145.145,40.0914 142.145,40.7581 139.5,42.5C 136.695,41.6805 133.695,41.1805 130.5,41C 135.689,34.9782 140.689,28.8115 145.5,22.5C 147.461,28.3443 148.461,34.3443 148.5,40.5 Z"/></g>
<g><path style="opacity:1" fill="#5db8ec" d="M 43.5,32.5 C 42.8184,38.0087 41.8184,43.342 40.5,48.5C 34.0768,49.4955 28.7435,52.8289 24.5,58.5C 21.3032,57.7072 17.6365,57.3739 13.5,57.5C 15.0607,53.3871 17.3941,49.7205 20.5,46.5C 25.5347,43.1162 30.5347,39.7829 35.5,36.5C 35.8333,36.5 36.1667,36.5 36.5,36.5C 37.1667,36.5 37.5,36.1667 37.5,35.5C 38.1667,35.5 38.5,35.1667 38.5,34.5C 39.791,34.7373 40.791,34.404 41.5,33.5C 42.1667,33.1667 42.8333,32.8333 43.5,32.5 Z"/></g>
<g><path style="opacity:1" fill="#ca6e1a" d="M 99.5,46.5 C 99.5,51.8333 99.5,57.1667 99.5,62.5C 99.5,72.5 99.5,82.5 99.5,92.5C 99.5,97.8333 99.5,103.167 99.5,108.5C 96.5,109.833 93.5,111.167 90.5,112.5C 89.9367,105.089 87.6034,98.2552 83.5,92C 70.2671,89.7818 57.9338,85.2818 46.5,78.5C 46.5,77.8333 46.8333,77.5 47.5,77.5C 50.3411,76.7763 53.0078,75.6096 55.5,74C 64.4703,66.1843 73.8036,58.851 83.5,52C 82.944,51.6174 82.6107,51.1174 82.5,50.5C 83.2389,50.631 83.9056,50.4643 84.5,50C 83.6433,49.3109 82.9767,48.4776 82.5,47.5C 88.1278,46.5046 93.7945,46.1712 99.5,46.5 Z"/></g>
<g><path style="opacity:1" fill="#1c6093" d="M 148.5,40.5 C 148.768,46.9494 148.102,53.2828 146.5,59.5C 143.484,58.6569 140.817,57.1569 138.5,55C 134.833,54.3333 131.167,54.3333 127.5,55C 128.738,55.69 128.738,56.19 127.5,56.5C 122.989,54.2094 122.322,51.5427 125.5,48.5C 126.981,49.4803 128.315,50.647 129.5,52C 130.167,52.6667 130.833,52.6667 131.5,52C 134.031,48.6425 136.698,45.4758 139.5,42.5C 142.145,40.7581 145.145,40.0914 148.5,40.5 Z"/></g>
<g><path style="opacity:1" fill="#113f69" d="M 146.5,59.5 C 146.709,61.7144 145.876,63.381 144,64.5C 141.352,63.0182 139.185,61.0182 137.5,58.5C 133.402,61.547 130.068,60.8803 127.5,56.5C 128.738,56.19 128.738,55.69 127.5,55C 131.167,54.3333 134.833,54.3333 138.5,55C 140.817,57.1569 143.484,58.6569 146.5,59.5 Z"/></g>
<g><path style="opacity:1" fill="#359bc0" d="M 116.5,50.5 C 116.389,51.1174 116.056,51.6174 115.5,52C 124.934,58.705 133.934,65.8717 142.5,73.5C 140.712,74.6225 138.712,74.7891 136.5,74C 124.886,71.1294 113.22,68.4627 101.5,66C 100.915,64.6976 100.249,63.531 99.5,62.5C 99.5,57.1667 99.5,51.8333 99.5,46.5C 105.319,45.3475 111.319,45.1808 117.5,46C 116.743,47.5122 115.743,48.8455 114.5,50C 115.094,50.4643 115.761,50.631 116.5,50.5 Z"/></g>
<g><path style="opacity:1" fill="#69c2ee" d="M 13.5,57.5 C 17.6365,57.3739 21.3032,57.7072 24.5,58.5C 23.6039,68.4679 23.2705,78.4679 23.5,88.5C 23.5,93.1667 23.5,97.8333 23.5,102.5C 22.5093,96.021 22.176,89.3543 22.5,82.5C 19.9743,82.0809 17.641,81.9142 15.5,82C 14.7362,79.9307 14.2362,77.764 14,75.5C 13.7679,76.7375 13.2679,77.7375 12.5,78.5C 12.2045,71.4122 12.5379,64.4122 13.5,57.5 Z"/></g>
<g><path style="opacity:1" fill="#66bfee" d="M 155.5,32.5 C 156.5,33.1667 157.5,33.8333 158.5,34.5C 159.167,34.5 159.833,34.5 160.5,34.5C 160.5,35.1667 160.833,35.5 161.5,35.5C 162.167,35.5 162.5,35.8333 162.5,36.5C 162.833,36.5 163.167,36.5 163.5,36.5C 168.465,39.7829 173.465,43.1162 178.5,46.5C 181.764,50.0284 184.264,54.0284 186,58.5C 186.5,65.4921 186.666,72.4921 186.5,79.5C 185.71,78.3915 185.21,77.0581 185,75.5C 184.814,77.9005 184.314,80.2338 183.5,82.5C 181.345,82.162 179.011,82.162 176.5,82.5C 176.824,89.3543 176.491,96.021 175.5,102.5C 175.5,97.8333 175.5,93.1667 175.5,88.5C 175.895,78.4343 175.395,68.4343 174,58.5C 170.049,52.6158 164.883,49.2825 158.5,48.5C 157.182,43.342 156.182,38.0087 155.5,32.5 Z"/></g>
<g><path style="opacity:1" fill="#318cb2" d="M 99.5,62.5 C 100.249,63.531 100.915,64.6976 101.5,66C 113.22,68.4627 124.886,71.1294 136.5,74C 138.712,74.7891 140.712,74.6225 142.5,73.5C 145.328,75.1583 148.328,76.4917 151.5,77.5C 152.167,77.5 152.5,77.8333 152.5,78.5C 141.437,85.2712 129.437,89.6046 116.5,91.5C 116.38,90.4138 115.713,89.7472 114.5,89.5C 109.819,88.496 105.153,87.496 100.5,86.5C 100.795,88.7354 100.461,90.7354 99.5,92.5C 99.5,82.5 99.5,72.5 99.5,62.5 Z"/></g>
<g><path style="opacity:1" fill="#fca255" d="M 45.5,78.5 C 45.8333,78.5 46.1667,78.5 46.5,78.5C 57.9338,85.2818 70.2671,89.7818 83.5,92C 87.6034,98.2552 89.9367,105.089 90.5,112.5C 90.6716,113.492 90.3382,114.158 89.5,114.5C 84.0358,121.897 79.7025,129.897 76.5,138.5C 73.8394,134.506 70.5061,131.173 66.5,128.5C 63.4657,124.666 59.4657,122.166 54.5,121C 48.4051,120.376 42.4051,120.876 36.5,122.5C 36.3404,120.847 35.6737,119.514 34.5,118.5C 35.18,111.116 36.18,103.783 37.5,96.5C 38.3425,92.5313 39.5092,88.5313 41,84.5C 41.9793,82.0324 43.4793,80.0324 45.5,78.5 Z"/></g>
<g><path style="opacity:1" fill="#0d486b" d="M 40.5,48.5 C 39.1826,59.1474 40.8493,69.1474 45.5,78.5C 43.4793,80.0324 41.9793,82.0324 41,84.5C 39.5092,88.5313 38.3425,92.5313 37.5,96.5C 35.2267,98.0389 33.2267,97.7055 31.5,95.5C 29.2573,94.5258 26.924,94.1924 24.5,94.5C 24.7947,92.2646 24.4614,90.2646 23.5,88.5C 23.2705,78.4679 23.6039,68.4679 24.5,58.5C 28.7435,52.8289 34.0768,49.4955 40.5,48.5 Z"/></g>
<g><path style="opacity:1" fill="#0a486b" d="M 175.5,88.5 C 174.539,90.2646 174.205,92.2646 174.5,94.5C 171.455,94.7036 168.621,94.7036 166,94.5C 165.092,96.4386 163.592,97.4386 161.5,97.5C 161.023,92.9358 159.857,88.6025 158,84.5C 157.021,82.0324 155.521,80.0324 153.5,78.5C 158.151,69.1474 159.817,59.1474 158.5,48.5C 164.883,49.2825 170.049,52.6158 174,58.5C 175.395,68.4343 175.895,78.4343 175.5,88.5 Z"/></g>
<g><path style="opacity:1" fill="#59c8f0" d="M 152.5,78.5 C 152.833,78.5 153.167,78.5 153.5,78.5C 155.521,80.0324 157.021,82.0324 158,84.5C 159.857,88.6025 161.023,92.9358 161.5,97.5C 162.369,99.717 162.702,102.05 162.5,104.5C 159.597,106.104 156.263,107.104 152.5,107.5C 153.5,109.167 154.833,110.5 156.5,111.5C 153.972,112.816 153.972,113.983 156.5,115C 155.333,116.167 154.167,117.333 153,118.5C 153.285,116.294 153.452,114.127 153.5,112C 151.623,109.749 150.123,107.249 149,104.5C 148.548,111.206 147.381,111.706 145.5,106C 143.414,105.685 141.414,105.185 139.5,104.5C 138.766,103.071 137.599,102.071 136,101.5C 134.56,102.148 133.06,102.481 131.5,102.5C 129.145,103.659 126.812,104.659 124.5,105.5C 123.833,105.5 123.167,105.5 122.5,105.5C 118.251,105.079 114.251,104.079 110.5,102.5C 111.742,98.3447 113.742,94.678 116.5,91.5C 129.437,89.6046 141.437,85.2712 152.5,78.5 Z"/></g>
<g><path style="opacity:1" fill="#11577a" d="M 23.5,88.5 C 24.4614,90.2646 24.7947,92.2646 24.5,94.5C 26.924,94.1924 29.2573,94.5258 31.5,95.5C 33.2267,97.7055 35.2267,98.0389 37.5,96.5C 36.18,103.783 35.18,111.116 34.5,118.5C 32.1971,117.589 30.6971,115.923 30,113.5C 28.3333,113.5 26.6667,113.5 25,113.5C 24.8138,110.964 24.3138,108.631 23.5,106.5C 23.5,105.167 23.5,103.833 23.5,102.5C 23.5,97.8333 23.5,93.1667 23.5,88.5 Z"/></g>
<g><path style="opacity:1" fill="#78cdf0" d="M 186.5,79.5 C 186.5,91.1667 186.5,102.833 186.5,114.5C 185.71,113.391 185.21,112.058 185,110.5C 184.667,113.5 184.333,116.5 184,119.5C 181.619,120.435 179.119,120.768 176.5,120.5C 176.821,126.026 176.488,131.36 175.5,136.5C 175.5,135.833 175.5,135.167 175.5,134.5C 175.5,123.833 175.5,113.167 175.5,102.5C 176.491,96.021 176.824,89.3543 176.5,82.5C 179.011,82.162 181.345,82.162 183.5,82.5C 184.314,80.2338 184.814,77.9005 185,75.5C 185.21,77.0581 185.71,78.3915 186.5,79.5 Z"/></g>
<g><path style="opacity:1" fill="#79cef0" d="M 23.5,102.5 C 23.5,103.833 23.5,105.167 23.5,106.5C 23.5,116.5 23.5,126.5 23.5,136.5C 22.6733,131.349 22.1733,126.016 22,120.5C 19.9667,120.132 17.8001,120.132 15.5,120.5C 14.6764,117.215 14.1764,113.882 14,110.5C 13.79,112.058 13.29,113.391 12.5,114.5C 12.5,102.5 12.5,90.5 12.5,78.5C 13.2679,77.7375 13.7679,76.7375 14,75.5C 14.2362,77.764 14.7362,79.9307 15.5,82C 17.641,81.9142 19.9743,82.0809 22.5,82.5C 22.176,89.3543 22.5093,96.021 23.5,102.5 Z"/></g>
<g><path style="opacity:1" fill="#36576d" d="M 67.5,102.5 C 68.7095,102.932 69.7095,103.599 70.5,104.5C 70.5,105.167 70.8333,105.5 71.5,105.5C 69.871,107.196 70.2043,108.196 72.5,108.5C 70.6222,110.509 68.4556,110.842 66,109.5C 65.8648,107.078 66.3648,104.745 67.5,102.5 Z"/></g>
<g><path style="opacity:1" fill="#3079a1" d="M 116.5,91.5 C 113.742,94.678 111.742,98.3447 110.5,102.5C 108.825,105.507 108.159,108.84 108.5,112.5C 105.529,111.173 102.529,109.84 99.5,108.5C 99.5,103.167 99.5,97.8333 99.5,92.5C 100.461,90.7354 100.795,88.7354 100.5,86.5C 105.153,87.496 109.819,88.496 114.5,89.5C 115.713,89.7472 116.38,90.4138 116.5,91.5 Z"/></g>
<g><path style="opacity:1" fill="#101b29" d="M 67.5,102.5 C 66.3648,104.745 65.8648,107.078 66,109.5C 68.4556,110.842 70.6222,110.509 72.5,108.5C 75.0155,107.14 74.6822,106.14 71.5,105.5C 70.8333,105.5 70.5,105.167 70.5,104.5C 74.9983,105.411 79.3317,106.911 83.5,109C 84.8663,111.382 84.533,113.548 82.5,115.5C 81.3122,116.84 79.8122,117.507 78,117.5C 70.0277,116.108 63.861,112.108 59.5,105.5C 60.9171,101.359 63.5837,100.359 67.5,102.5 Z"/></g>
<g><path style="opacity:1" fill="#ebedef" d="M 71.5,105.5 C 74.6822,106.14 75.0155,107.14 72.5,108.5C 70.2043,108.196 69.871,107.196 71.5,105.5 Z"/></g>
<g><path style="opacity:1" fill="#37647b" d="M 131.5,102.5 C 132.635,104.745 133.135,107.078 133,109.5C 130.544,110.842 128.378,110.509 126.5,108.5C 128.028,108.483 128.528,107.816 128,106.5C 126.855,105.316 125.688,105.316 124.5,106.5C 124.5,106.167 124.5,105.833 124.5,105.5C 126.812,104.659 129.145,103.659 131.5,102.5 Z"/></g>
<g><path style="opacity:1" fill="#d4f9fc" d="M 99.5,108.5 C 102.529,109.84 105.529,111.173 108.5,112.5C 109.167,113.833 109.833,115.167 110.5,116.5C 105.322,121.41 99.3218,122.577 92.5,120C 90.393,118.736 89.393,116.903 89.5,114.5C 90.3382,114.158 90.6716,113.492 90.5,112.5C 93.5,111.167 96.5,109.833 99.5,108.5 Z"/></g>
<g><path style="opacity:1" fill="#0f2333" d="M 139.5,104.5 C 135.557,111.997 129.224,116.33 120.5,117.5C 115.968,116.173 114.301,113.339 115.5,109C 118.174,108.33 120.507,107.163 122.5,105.5C 123.167,105.5 123.833,105.5 124.5,105.5C 124.5,105.833 124.5,106.167 124.5,106.5C 124.5,107.833 125.167,108.5 126.5,108.5C 128.378,110.509 130.544,110.842 133,109.5C 133.135,107.078 132.635,104.745 131.5,102.5C 133.06,102.481 134.56,102.148 136,101.5C 137.599,102.071 138.766,103.071 139.5,104.5 Z"/></g>
<g><path style="opacity:1" fill="#4eb3e6" d="M 110.5,102.5 C 114.251,104.079 118.251,105.079 122.5,105.5C 120.507,107.163 118.174,108.33 115.5,109C 114.301,113.339 115.968,116.173 120.5,117.5C 129.224,116.33 135.557,111.997 139.5,104.5C 141.414,105.185 143.414,105.685 145.5,106C 147.381,111.706 148.548,111.206 149,104.5C 150.123,107.249 151.623,109.749 153.5,112C 153.452,114.127 153.285,116.294 153,118.5C 154.167,117.333 155.333,116.167 156.5,115C 153.972,113.983 153.972,112.816 156.5,111.5C 154.833,110.5 153.5,109.167 152.5,107.5C 156.263,107.104 159.597,106.104 162.5,104.5C 165.427,110.932 165.093,117.265 161.5,123.5C 153.98,119.915 146.314,119.582 138.5,122.5C 136.146,124.188 134.146,126.188 132.5,128.5C 128.482,131.521 124.816,134.854 121.5,138.5C 119.523,130.227 115.856,122.893 110.5,116.5C 109.833,115.167 109.167,113.833 108.5,112.5C 108.159,108.84 108.825,105.507 110.5,102.5 Z"/></g>
<g><path style="opacity:1" fill="#89eff9" d="M 126.5,108.5 C 125.167,108.5 124.5,107.833 124.5,106.5C 125.688,105.316 126.855,105.316 128,106.5C 128.528,107.816 128.028,108.483 126.5,108.5 Z"/></g>
<g><path style="opacity:1" fill="#fdfdfd" d="M 89.5,114.5 C 89.393,116.903 90.393,118.736 92.5,120C 99.3218,122.577 105.322,121.41 110.5,116.5C 115.856,122.893 119.523,130.227 121.5,138.5C 122.234,139.708 122.567,141.041 122.5,142.5C 123.821,149.4 121.487,154.4 115.5,157.5C 112.25,155.388 109.25,153.055 106.5,150.5C 110.666,148.993 113,145.993 113.5,141.5C 106.073,135.155 97.74,133.988 88.5,138C 85.1259,140.197 84.6259,143.031 87,146.5C 88.451,148.464 90.2843,149.797 92.5,150.5C 92.6309,151.376 92.2975,152.043 91.5,152.5C 88.5549,154.143 85.5549,155.476 82.5,156.5C 80.5833,155.594 78.9166,154.261 77.5,152.5C 76.513,149.232 76.1796,145.898 76.5,142.5C 76.5,141.167 76.5,139.833 76.5,138.5C 79.7025,129.897 84.0358,121.897 89.5,114.5 Z"/></g>
<g><path style="opacity:1" fill="#7de3f9" d="M 138.5,122.5 C 134.752,120.908 130.752,120.075 126.5,120C 130.697,120.2 134.363,119.033 137.5,116.5C 140.999,118.12 141.332,120.12 138.5,122.5 Z"/></g>
<g><path style="opacity:1" fill="#fdfdfc" d="M 66.5,128.5 C 65.4707,133.612 63.9707,138.612 62,143.5C 61.0374,146.617 59.2041,148.951 56.5,150.5C 47.4787,142.818 40.812,133.484 36.5,122.5C 42.4051,120.876 48.4051,120.376 54.5,121C 59.4657,122.166 63.4657,124.666 66.5,128.5 Z"/></g>
<g><path style="opacity:1" fill="#fcfdfe" d="M 161.5,123.5 C 159.583,128.935 156.916,133.935 153.5,138.5C 150.236,143.434 146.236,147.767 141.5,151.5C 137.131,144.42 134.131,136.753 132.5,128.5C 134.146,126.188 136.146,124.188 138.5,122.5C 146.314,119.582 153.98,119.915 161.5,123.5 Z"/></g>
<g><path style="opacity:1" fill="#0f688e" d="M 23.5,106.5 C 24.3138,108.631 24.8138,110.964 25,113.5C 26.6667,113.5 28.3333,113.5 30,113.5C 30.6971,115.923 32.1971,117.589 34.5,118.5C 35.6737,119.514 36.3404,120.847 36.5,122.5C 40.812,133.484 47.4787,142.818 56.5,150.5C 56.5,150.833 56.5,151.167 56.5,151.5C 56.44,152.043 56.1067,152.376 55.5,152.5C 51.2935,150.235 47.2935,147.735 43.5,145C 37.4745,143.596 31.4745,143.096 25.5,143.5C 24.6814,141.228 24.0147,138.894 23.5,136.5C 23.5,126.5 23.5,116.5 23.5,106.5 Z"/></g>
<g><path style="opacity:1" fill="#c6f2fb" d="M 66.5,128.5 C 70.5061,131.173 73.8394,134.506 76.5,138.5C 76.5,139.833 76.5,141.167 76.5,142.5C 73.5691,144.091 70.9024,146.091 68.5,148.5C 71.929,154.763 76.5957,159.93 82.5,164C 86.5,164.667 90.5,164.667 94.5,164C 95.4158,163.722 96.0825,163.222 96.5,162.5C 98.5,162.5 100.5,162.5 102.5,162.5C 104.634,164.033 107.134,164.7 110,164.5C 113.496,164.735 116.663,163.902 119.5,162C 124.113,158.225 127.78,153.725 130.5,148.5C 128.098,146.091 125.431,144.091 122.5,142.5C 122.567,141.041 122.234,139.708 121.5,138.5C 124.816,134.854 128.482,131.521 132.5,128.5C 134.131,136.753 137.131,144.42 141.5,151.5C 134.11,158.373 126.11,164.539 117.5,170C 111.579,171.099 105.579,171.599 99.5,171.5C 93.4214,171.599 87.4214,171.099 81.5,170C 72.7808,164.312 64.4474,158.145 56.5,151.5C 56.5,151.167 56.5,150.833 56.5,150.5C 59.2041,148.951 61.0374,146.617 62,143.5C 63.9707,138.612 65.4707,133.612 66.5,128.5 Z"/></g>
<g><path style="opacity:1" fill="#0e6187" d="M 175.5,88.5 C 175.5,93.1667 175.5,97.8333 175.5,102.5C 175.5,113.167 175.5,123.833 175.5,134.5C 173.068,134.364 170.568,134.031 168,133.5C 166.307,134.184 164.807,135.184 163.5,136.5C 162.914,136.291 162.414,135.957 162,135.5C 159.674,137.164 157.341,138.831 155,140.5C 153.97,140.164 153.47,139.497 153.5,138.5C 156.916,133.935 159.583,128.935 161.5,123.5C 165.093,117.265 165.427,110.932 162.5,104.5C 162.702,102.05 162.369,99.717 161.5,97.5C 163.592,97.4386 165.092,96.4386 166,94.5C 168.621,94.7036 171.455,94.7036 174.5,94.5C 174.205,92.2646 174.539,90.2646 175.5,88.5 Z"/></g>
<g><path style="opacity:1" fill="#0e2b3f" d="M 106.5,150.5 C 104.198,151.829 101.864,153.162 99.5,154.5C 97.1356,153.162 94.8023,151.829 92.5,150.5C 90.2843,149.797 88.451,148.464 87,146.5C 84.6259,143.031 85.1259,140.197 88.5,138C 97.74,133.988 106.073,135.155 113.5,141.5C 113,145.993 110.666,148.993 106.5,150.5 Z"/></g>
<g><path style="opacity:1" fill="#214864" d="M 98.5,138.5 C 101.885,139.606 105.218,140.773 108.5,142C 105.5,143.833 102.5,145.667 99.5,147.5C 96.328,145.748 93.328,143.748 90.5,141.5C 93.447,140.92 96.1137,139.92 98.5,138.5 Z"/></g>
<g><path style="opacity:1" fill="#89c0d9" d="M 76.5,142.5 C 76.1796,145.898 76.513,149.232 77.5,152.5C 78.9166,154.261 80.5833,155.594 82.5,156.5C 85.3939,159.297 88.7272,160.297 92.5,159.5C 93.8333,160.5 95.1667,161.5 96.5,162.5C 96.0825,163.222 95.4158,163.722 94.5,164C 90.5,164.667 86.5,164.667 82.5,164C 76.5957,159.93 71.929,154.763 68.5,148.5C 70.9024,146.091 73.5691,144.091 76.5,142.5 Z"/></g>
<g><path style="opacity:1" fill="#89c0d9" d="M 122.5,142.5 C 125.431,144.091 128.098,146.091 130.5,148.5C 127.78,153.725 124.113,158.225 119.5,162C 116.663,163.902 113.496,164.735 110,164.5C 107.134,164.7 104.634,164.033 102.5,162.5C 103.833,161.5 105.167,160.5 106.5,159.5C 107.265,159.923 108.098,160.257 109,160.5C 111.035,159.211 113.201,158.211 115.5,157.5C 121.487,154.4 123.821,149.4 122.5,142.5 Z"/></g>
<g><path style="opacity:0.996" fill="#91e1f4" d="M 23.5,136.5 C 24.0147,138.894 24.6814,141.228 25.5,143.5C 27.309,146.139 29.6424,148.306 32.5,150C 39.478,153.933 46.478,157.766 53.5,161.5C 53.5,161.833 53.5,162.167 53.5,162.5C 47.5348,163.819 41.2015,163.819 34.5,162.5C 23.8552,159.591 16.6885,152.924 13,142.5C 12.5002,133.173 12.3335,123.839 12.5,114.5C 13.29,113.391 13.79,112.058 14,110.5C 14.1764,113.882 14.6764,117.215 15.5,120.5C 17.8001,120.132 19.9667,120.132 22,120.5C 22.1733,126.016 22.6733,131.349 23.5,136.5 Z"/></g>
<g><path style="opacity:0.996" fill="#91e1f4" d="M 186.5,114.5 C 186.666,123.839 186.5,133.173 186,142.5C 182.311,152.924 175.145,159.591 164.5,162.5C 159.109,163.378 153.775,163.711 148.5,163.5C 147.818,162.757 147.151,162.091 146.5,161.5C 153.972,156.801 161.639,152.301 169.5,148C 173.218,145.063 175.218,141.23 175.5,136.5C 176.488,131.36 176.821,126.026 176.5,120.5C 179.119,120.768 181.619,120.435 184,119.5C 184.333,116.5 184.667,113.5 185,110.5C 185.21,112.058 185.71,113.391 186.5,114.5 Z"/></g>
<g><path style="opacity:1" fill="#1383ac" d="M 145.5,161.5 C 133.043,169.233 120.376,176.733 107.5,184C 102.167,187.333 96.8333,187.333 91.5,184C 78.9409,176.556 66.2743,169.39 53.5,162.5C 53.5,162.167 53.5,161.833 53.5,161.5C 55.8232,160.418 58.1565,160.585 60.5,162C 63.3689,163.748 66.0355,165.748 68.5,168C 73.0009,168.917 77.0009,170.917 80.5,174C 93.1929,176.987 105.86,176.987 118.5,174C 122.989,170.586 127.989,167.919 133.5,166C 136.462,163.053 139.962,160.887 144,159.5C 144.278,160.416 144.778,161.082 145.5,161.5 Z"/></g>
<g><path style="opacity:1" fill="#12789f" d="M 175.5,134.5 C 175.5,135.167 175.5,135.833 175.5,136.5C 175.218,141.23 173.218,145.063 169.5,148C 161.639,152.301 153.972,156.801 146.5,161.5C 146.167,161.5 145.833,161.5 145.5,161.5C 144.778,161.082 144.278,160.416 144,159.5C 139.962,160.887 136.462,163.053 133.5,166C 127.989,167.919 122.989,170.586 118.5,174C 105.86,176.987 93.1929,176.987 80.5,174C 77.0009,170.917 73.0009,168.917 68.5,168C 66.0355,165.748 63.3689,163.748 60.5,162C 58.1565,160.585 55.8232,160.418 53.5,161.5C 46.478,157.766 39.478,153.933 32.5,150C 29.6424,148.306 27.309,146.139 25.5,143.5C 31.4745,143.096 37.4745,143.596 43.5,145C 47.2935,147.735 51.2935,150.235 55.5,152.5C 56.1067,152.376 56.44,152.043 56.5,151.5C 64.4474,158.145 72.7808,164.312 81.5,170C 87.4214,171.099 93.4214,171.599 99.5,171.5C 105.579,171.599 111.579,171.099 117.5,170C 126.11,164.539 134.11,158.373 141.5,151.5C 146.236,147.767 150.236,143.434 153.5,138.5C 153.47,139.497 153.97,140.164 155,140.5C 157.341,138.831 159.674,137.164 162,135.5C 162.414,135.957 162.914,136.291 163.5,136.5C 164.807,135.184 166.307,134.184 168,133.5C 170.568,134.031 173.068,134.364 175.5,134.5 Z"/></g>
<g><path style="opacity:1" fill="#366f8f" d="M 106.5,159.5 C 105.167,160.5 103.833,161.5 102.5,162.5C 100.5,162.5 98.5,162.5 96.5,162.5C 95.1667,161.5 93.8333,160.5 92.5,159.5C 94.8654,158.992 97.1987,158.325 99.5,157.5C 101.801,158.325 104.135,158.992 106.5,159.5 Z"/></g>
<g><path style="opacity:1" fill="#afe7fb" d="M 92.5,150.5 C 94.8023,151.829 97.1356,153.162 99.5,154.5C 101.864,153.162 104.198,151.829 106.5,150.5C 109.25,153.055 112.25,155.388 115.5,157.5C 113.201,158.211 111.035,159.211 109,160.5C 108.098,160.257 107.265,159.923 106.5,159.5C 104.135,158.992 101.801,158.325 99.5,157.5C 97.1987,158.325 94.8654,158.992 92.5,159.5C 88.7272,160.297 85.3939,159.297 82.5,156.5C 85.5549,155.476 88.5549,154.143 91.5,152.5C 92.2975,152.043 92.6309,151.376 92.5,150.5 Z"/></g>
<g><path style="opacity:0.986" fill="#a1edf6" d="M 145.5,161.5 C 145.833,161.5 146.167,161.5 146.5,161.5C 147.151,162.091 147.818,162.757 148.5,163.5C 153.775,163.711 159.109,163.378 164.5,162.5C 146.223,174.547 127.223,185.714 107.5,196C 100.285,197.113 93.2851,196.446 86.5,194C 68.8499,183.691 51.5165,173.191 34.5,162.5C 41.2015,163.819 47.5348,163.819 53.5,162.5C 66.2743,169.39 78.9409,176.556 91.5,184C 96.8333,187.333 102.167,187.333 107.5,184C 120.376,176.733 133.043,169.233 145.5,161.5 Z"/></g>
</svg>
